<mxfile host="app.diagrams.net" modified="2023-06-02T19:09:57.094Z" agent="Mozilla/5.0 (Windows NT 10.0; Win64; x64) AppleWebKit/537.36 (KHTML, like Gecko) Chrome/113.0.0.0 Safari/537.36" etag="LK4Wz62Axy7tRswl5HOY" version="21.3.7" type="github">
  <diagram name="Page-1" id="CjbLvuf9Ty9q6dteD8Ma">
    <mxGraphModel dx="1900" dy="549" grid="1" gridSize="10" guides="1" tooltips="1" connect="1" arrows="1" fold="1" page="1" pageScale="1" pageWidth="850" pageHeight="1100" math="0" shadow="0">
      <root>
        <mxCell id="0" />
        <mxCell id="1" parent="0" />
        <mxCell id="WMxFekpVjy091wSbI-C_-6" style="rounded=0;orthogonalLoop=1;jettySize=auto;html=1;entryX=0.5;entryY=1;entryDx=0;entryDy=0;endArrow=none;endFill=0;" parent="1" source="WMxFekpVjy091wSbI-C_-1" target="WMxFekpVjy091wSbI-C_-2" edge="1">
          <mxGeometry relative="1" as="geometry" />
        </mxCell>
        <mxCell id="WMxFekpVjy091wSbI-C_-7" style="rounded=0;orthogonalLoop=1;jettySize=auto;html=1;entryX=0.5;entryY=1;entryDx=0;entryDy=0;endArrow=none;endFill=0;" parent="1" source="WMxFekpVjy091wSbI-C_-1" target="WMxFekpVjy091wSbI-C_-3" edge="1">
          <mxGeometry relative="1" as="geometry" />
        </mxCell>
        <mxCell id="WMxFekpVjy091wSbI-C_-8" style="rounded=0;orthogonalLoop=1;jettySize=auto;html=1;entryX=0;entryY=0.5;entryDx=0;entryDy=0;endArrow=none;endFill=0;" parent="1" source="WMxFekpVjy091wSbI-C_-1" target="WMxFekpVjy091wSbI-C_-4" edge="1">
          <mxGeometry relative="1" as="geometry" />
        </mxCell>
        <mxCell id="WMxFekpVjy091wSbI-C_-9" style="rounded=0;orthogonalLoop=1;jettySize=auto;html=1;entryX=0;entryY=0.5;entryDx=0;entryDy=0;endArrow=none;endFill=0;" parent="1" source="WMxFekpVjy091wSbI-C_-1" target="WMxFekpVjy091wSbI-C_-5" edge="1">
          <mxGeometry relative="1" as="geometry" />
        </mxCell>
        <mxCell id="WMxFekpVjy091wSbI-C_-32" value="&lt;font style=&quot;font-size: 17px;&quot;&gt;(0, *)&lt;/font&gt;" style="rounded=0;orthogonalLoop=1;jettySize=auto;html=1;endArrow=none;endFill=0;entryX=1;entryY=0.5;entryDx=0;entryDy=0;" parent="1" target="JQodVGw4U6Q7ayuIJfdO-9" edge="1">
          <mxGeometry relative="1" as="geometry">
            <mxPoint x="920" y="200" as="sourcePoint" />
            <mxPoint x="850" y="290" as="targetPoint" />
          </mxGeometry>
        </mxCell>
        <mxCell id="WMxFekpVjy091wSbI-C_-59" value="&lt;font style=&quot;font-size: 15px;&quot;&gt;(0, *)&lt;/font&gt;" style="rounded=0;orthogonalLoop=1;jettySize=auto;html=1;entryX=1;entryY=0.5;entryDx=0;entryDy=0;endArrow=none;endFill=0;startArrow=none;startFill=0;" parent="1" source="WMxFekpVjy091wSbI-C_-1" target="WMxFekpVjy091wSbI-C_-53" edge="1">
          <mxGeometry relative="1" as="geometry">
            <mxPoint x="816" y="179.25" as="targetPoint" />
          </mxGeometry>
        </mxCell>
        <mxCell id="WMxFekpVjy091wSbI-C_-1" value="Product" style="rounded=0;whiteSpace=wrap;html=1;" parent="1" vertex="1">
          <mxGeometry x="915" y="150" width="120" height="60" as="geometry" />
        </mxCell>
        <mxCell id="WMxFekpVjy091wSbI-C_-2" value="&lt;u&gt;id&lt;/u&gt;" style="ellipse;whiteSpace=wrap;html=1;" parent="1" vertex="1">
          <mxGeometry x="890" y="60" width="85" height="50" as="geometry" />
        </mxCell>
        <mxCell id="WMxFekpVjy091wSbI-C_-3" value="name" style="ellipse;whiteSpace=wrap;html=1;" parent="1" vertex="1">
          <mxGeometry x="1050" y="70" width="85" height="50" as="geometry" />
        </mxCell>
        <mxCell id="WMxFekpVjy091wSbI-C_-4" value="description" style="ellipse;whiteSpace=wrap;html=1;" parent="1" vertex="1">
          <mxGeometry x="1115" y="155" width="85" height="50" as="geometry" />
        </mxCell>
        <mxCell id="WMxFekpVjy091wSbI-C_-5" value="brand_name" style="ellipse;whiteSpace=wrap;html=1;" parent="1" vertex="1">
          <mxGeometry x="1100" y="260" width="85" height="50" as="geometry" />
        </mxCell>
        <mxCell id="WMxFekpVjy091wSbI-C_-12" style="rounded=0;orthogonalLoop=1;jettySize=auto;html=1;endArrow=none;endFill=0;" parent="1" source="WMxFekpVjy091wSbI-C_-10" target="WMxFekpVjy091wSbI-C_-11" edge="1">
          <mxGeometry relative="1" as="geometry" />
        </mxCell>
        <mxCell id="WMxFekpVjy091wSbI-C_-22" style="rounded=0;orthogonalLoop=1;jettySize=auto;html=1;endArrow=none;endFill=0;" parent="1" source="WMxFekpVjy091wSbI-C_-10" target="WMxFekpVjy091wSbI-C_-13" edge="1">
          <mxGeometry relative="1" as="geometry" />
        </mxCell>
        <mxCell id="WMxFekpVjy091wSbI-C_-29" style="rounded=0;orthogonalLoop=1;jettySize=auto;html=1;entryX=0.5;entryY=1;entryDx=0;entryDy=0;endArrow=none;endFill=0;" parent="1" source="WMxFekpVjy091wSbI-C_-10" target="WMxFekpVjy091wSbI-C_-26" edge="1">
          <mxGeometry relative="1" as="geometry" />
        </mxCell>
        <mxCell id="WMxFekpVjy091wSbI-C_-31" value="&lt;font style=&quot;font-size: 16px;&quot;&gt;(0, *)&lt;/font&gt;" style="rounded=0;orthogonalLoop=1;jettySize=auto;html=1;endArrow=none;endFill=0;" parent="1" source="WMxFekpVjy091wSbI-C_-10" edge="1">
          <mxGeometry relative="1" as="geometry">
            <mxPoint x="360" y="300" as="targetPoint" />
          </mxGeometry>
        </mxCell>
        <mxCell id="WMxFekpVjy091wSbI-C_-55" style="rounded=0;orthogonalLoop=1;jettySize=auto;html=1;endArrow=none;endFill=0;startArrow=none;startFill=0;entryX=0;entryY=0.5;entryDx=0;entryDy=0;" parent="1" source="WMxFekpVjy091wSbI-C_-10" target="WMxFekpVjy091wSbI-C_-47" edge="1">
          <mxGeometry relative="1" as="geometry">
            <mxPoint x="281" y="180" as="targetPoint" />
          </mxGeometry>
        </mxCell>
        <mxCell id="WMxFekpVjy091wSbI-C_-64" value="&lt;font style=&quot;font-size: 15px;&quot;&gt;(1, 1)&lt;/font&gt;" style="rounded=0;orthogonalLoop=1;jettySize=auto;html=1;entryX=1;entryY=0.5;entryDx=0;entryDy=0;endArrow=none;endFill=0;" parent="1" source="WMxFekpVjy091wSbI-C_-10" target="WMxFekpVjy091wSbI-C_-63" edge="1">
          <mxGeometry x="0.0094" relative="1" as="geometry">
            <mxPoint as="offset" />
          </mxGeometry>
        </mxCell>
        <mxCell id="WMxFekpVjy091wSbI-C_-10" value="Company" style="rounded=0;whiteSpace=wrap;html=1;" parent="1" vertex="1">
          <mxGeometry x="73" y="150" width="120" height="60" as="geometry" />
        </mxCell>
        <mxCell id="WMxFekpVjy091wSbI-C_-11" value="name" style="ellipse;whiteSpace=wrap;html=1;fontStyle=4" parent="1" vertex="1">
          <mxGeometry x="90" y="40" width="85" height="50" as="geometry" />
        </mxCell>
        <mxCell id="WMxFekpVjy091wSbI-C_-13" value="address" style="ellipse;whiteSpace=wrap;html=1;" parent="1" vertex="1">
          <mxGeometry x="90" y="290" width="85" height="50" as="geometry" />
        </mxCell>
        <mxCell id="WMxFekpVjy091wSbI-C_-19" style="rounded=0;orthogonalLoop=1;jettySize=auto;html=1;endArrow=none;endFill=0;" parent="1" source="WMxFekpVjy091wSbI-C_-14" target="WMxFekpVjy091wSbI-C_-13" edge="1">
          <mxGeometry relative="1" as="geometry" />
        </mxCell>
        <mxCell id="WMxFekpVjy091wSbI-C_-14" value="city" style="ellipse;whiteSpace=wrap;html=1;" parent="1" vertex="1">
          <mxGeometry x="25" y="370" width="85" height="50" as="geometry" />
        </mxCell>
        <mxCell id="WMxFekpVjy091wSbI-C_-20" style="rounded=0;orthogonalLoop=1;jettySize=auto;html=1;entryX=0.682;entryY=0.964;entryDx=0;entryDy=0;entryPerimeter=0;endArrow=none;endFill=0;" parent="1" source="WMxFekpVjy091wSbI-C_-15" target="WMxFekpVjy091wSbI-C_-13" edge="1">
          <mxGeometry relative="1" as="geometry" />
        </mxCell>
        <mxCell id="WMxFekpVjy091wSbI-C_-15" value="zip_number" style="ellipse;whiteSpace=wrap;html=1;" parent="1" vertex="1">
          <mxGeometry x="140" y="370" width="85" height="50" as="geometry" />
        </mxCell>
        <mxCell id="WMxFekpVjy091wSbI-C_-21" style="rounded=0;orthogonalLoop=1;jettySize=auto;html=1;endArrow=none;endFill=0;entryX=1;entryY=0.5;entryDx=0;entryDy=0;" parent="1" source="WMxFekpVjy091wSbI-C_-16" target="WMxFekpVjy091wSbI-C_-13" edge="1">
          <mxGeometry relative="1" as="geometry">
            <mxPoint x="170" y="305" as="targetPoint" />
          </mxGeometry>
        </mxCell>
        <mxCell id="WMxFekpVjy091wSbI-C_-16" value="street_info" style="ellipse;whiteSpace=wrap;html=1;" parent="1" vertex="1">
          <mxGeometry x="250" y="370" width="85" height="50" as="geometry" />
        </mxCell>
        <mxCell id="WMxFekpVjy091wSbI-C_-18" style="rounded=0;orthogonalLoop=1;jettySize=auto;html=1;entryX=0;entryY=0.5;entryDx=0;entryDy=0;endArrow=none;endFill=0;" parent="1" source="WMxFekpVjy091wSbI-C_-17" target="WMxFekpVjy091wSbI-C_-13" edge="1">
          <mxGeometry relative="1" as="geometry" />
        </mxCell>
        <mxCell id="WMxFekpVjy091wSbI-C_-17" value="country" style="ellipse;whiteSpace=wrap;html=1;" parent="1" vertex="1">
          <mxGeometry x="-85" y="370" width="85" height="50" as="geometry" />
        </mxCell>
        <mxCell id="WMxFekpVjy091wSbI-C_-23" value="phone_number" style="ellipse;whiteSpace=wrap;html=1;fontStyle=4" parent="1" vertex="1">
          <mxGeometry x="-267.5" y="40" width="95" height="55" as="geometry" />
        </mxCell>
        <mxCell id="WMxFekpVjy091wSbI-C_-28" value="" style="group" parent="1" vertex="1" connectable="0">
          <mxGeometry x="230" y="40" width="107" height="70" as="geometry" />
        </mxCell>
        <mxCell id="WMxFekpVjy091wSbI-C_-26" value="" style="ellipse;whiteSpace=wrap;html=1;fontStyle=0" parent="WMxFekpVjy091wSbI-C_-28" vertex="1">
          <mxGeometry width="107" height="70" as="geometry" />
        </mxCell>
        <mxCell id="WMxFekpVjy091wSbI-C_-25" value="email" style="ellipse;whiteSpace=wrap;html=1;fontStyle=0" parent="WMxFekpVjy091wSbI-C_-28" vertex="1">
          <mxGeometry x="11" y="10" width="85" height="50" as="geometry" />
        </mxCell>
        <mxCell id="WMxFekpVjy091wSbI-C_-35" style="rounded=0;orthogonalLoop=1;jettySize=auto;html=1;entryX=0.5;entryY=0;entryDx=0;entryDy=0;exitX=0.5;exitY=1;exitDx=0;exitDy=0;endArrow=none;endFill=0;" parent="1" source="JQodVGw4U6Q7ayuIJfdO-8" target="WMxFekpVjy091wSbI-C_-33" edge="1">
          <mxGeometry relative="1" as="geometry">
            <mxPoint x="552" y="420" as="sourcePoint" />
          </mxGeometry>
        </mxCell>
        <mxCell id="WMxFekpVjy091wSbI-C_-33" value="capacity" style="ellipse;whiteSpace=wrap;html=1;" parent="1" vertex="1">
          <mxGeometry x="452" y="440" width="85" height="50" as="geometry" />
        </mxCell>
        <mxCell id="WMxFekpVjy091wSbI-C_-42" value="order_date" style="ellipse;whiteSpace=wrap;html=1;fontStyle=0" parent="1" vertex="1">
          <mxGeometry x="367" y="40" width="85" height="50" as="geometry" />
        </mxCell>
        <mxCell id="WMxFekpVjy091wSbI-C_-43" value="amount" style="ellipse;whiteSpace=wrap;html=1;" parent="1" vertex="1">
          <mxGeometry x="570" y="40" width="85" height="50" as="geometry" />
        </mxCell>
        <mxCell id="WMxFekpVjy091wSbI-C_-44" style="rounded=0;orthogonalLoop=1;jettySize=auto;html=1;entryX=0.5;entryY=1;entryDx=0;entryDy=0;endArrow=none;endFill=0;exitX=0.188;exitY=-0.057;exitDx=0;exitDy=0;exitPerimeter=0;" parent="1" source="WMxFekpVjy091wSbI-C_-39" target="WMxFekpVjy091wSbI-C_-42" edge="1">
          <mxGeometry relative="1" as="geometry">
            <mxPoint x="496.9583333333335" y="137.5" as="sourcePoint" />
          </mxGeometry>
        </mxCell>
        <mxCell id="WMxFekpVjy091wSbI-C_-45" style="rounded=0;orthogonalLoop=1;jettySize=auto;html=1;entryX=0.5;entryY=1;entryDx=0;entryDy=0;endArrow=none;endFill=0;exitX=0.75;exitY=0;exitDx=0;exitDy=0;" parent="1" source="WMxFekpVjy091wSbI-C_-39" target="WMxFekpVjy091wSbI-C_-43" edge="1">
          <mxGeometry relative="1" as="geometry">
            <mxPoint x="635.5" y="90" as="targetPoint" />
            <mxPoint x="586.6805555555557" y="137.5" as="sourcePoint" />
          </mxGeometry>
        </mxCell>
        <mxCell id="WMxFekpVjy091wSbI-C_-54" value="&lt;font style=&quot;font-size: 15px;&quot;&gt;(1, 1)&lt;/font&gt;" style="rounded=0;orthogonalLoop=1;jettySize=auto;html=1;endArrow=none;endFill=0;exitX=0;exitY=0.5;exitDx=0;exitDy=0;entryX=1;entryY=0.5;entryDx=0;entryDy=0;" parent="1" source="WMxFekpVjy091wSbI-C_-39" target="WMxFekpVjy091wSbI-C_-47" edge="1">
          <mxGeometry relative="1" as="geometry">
            <mxPoint x="473" y="180" as="sourcePoint" />
            <mxPoint x="380" y="180" as="targetPoint" />
          </mxGeometry>
        </mxCell>
        <mxCell id="WMxFekpVjy091wSbI-C_-58" value="&lt;font style=&quot;font-size: 15px;&quot;&gt;(1, 1)&lt;/font&gt;" style="rounded=0;orthogonalLoop=1;jettySize=auto;html=1;entryX=0;entryY=0.5;entryDx=0;entryDy=0;endArrow=none;endFill=0;exitX=1;exitY=0.5;exitDx=0;exitDy=0;" parent="1" source="WMxFekpVjy091wSbI-C_-39" target="WMxFekpVjy091wSbI-C_-53" edge="1">
          <mxGeometry relative="1" as="geometry">
            <mxPoint x="613" y="179.70833333333337" as="sourcePoint" />
            <mxPoint x="723" y="179.25" as="targetPoint" />
          </mxGeometry>
        </mxCell>
        <mxCell id="WMxFekpVjy091wSbI-C_-60" value="&lt;font style=&quot;font-size: 16px;&quot;&gt;(0, *)&lt;/font&gt;" style="edgeStyle=orthogonalEdgeStyle;rounded=0;orthogonalLoop=1;jettySize=auto;html=1;endArrow=none;endFill=0;" parent="1" target="WMxFekpVjy091wSbI-C_-10" edge="1">
          <mxGeometry x="-0.2208" relative="1" as="geometry">
            <mxPoint x="270" y="180" as="sourcePoint" />
            <Array as="points">
              <mxPoint x="240" y="180" />
              <mxPoint x="240" y="180" />
            </Array>
            <mxPoint x="-1" as="offset" />
          </mxGeometry>
        </mxCell>
        <mxCell id="WMxFekpVjy091wSbI-C_-62" style="edgeStyle=orthogonalEdgeStyle;rounded=0;orthogonalLoop=1;jettySize=auto;html=1;entryX=0.5;entryY=1;entryDx=0;entryDy=0;endArrow=none;endFill=0;" parent="1" source="WMxFekpVjy091wSbI-C_-61" target="WMxFekpVjy091wSbI-C_-23" edge="1">
          <mxGeometry relative="1" as="geometry" />
        </mxCell>
        <mxCell id="WMxFekpVjy091wSbI-C_-65" value="&lt;font style=&quot;font-size: 15px;&quot;&gt;(1, 1)&lt;/font&gt;" style="rounded=0;orthogonalLoop=1;jettySize=auto;html=1;entryX=0;entryY=0.5;entryDx=0;entryDy=0;endArrow=none;endFill=0;" parent="1" source="WMxFekpVjy091wSbI-C_-61" target="WMxFekpVjy091wSbI-C_-63" edge="1">
          <mxGeometry relative="1" as="geometry" />
        </mxCell>
        <mxCell id="WMxFekpVjy091wSbI-C_-61" value="PhoneNumber" style="rounded=0;whiteSpace=wrap;html=1;" parent="1" vertex="1">
          <mxGeometry x="-280" y="149.25" width="120" height="60" as="geometry" />
        </mxCell>
        <mxCell id="WMxFekpVjy091wSbI-C_-63" value="Has phone" style="rhombus;whiteSpace=wrap;html=1;" parent="1" vertex="1">
          <mxGeometry x="-80" y="139.25" width="80" height="80" as="geometry" />
        </mxCell>
        <mxCell id="WMxFekpVjy091wSbI-C_-47" value="Has" style="rhombus;whiteSpace=wrap;html=1;container=1;" parent="1" vertex="1">
          <mxGeometry x="287" y="140" width="80" height="80" as="geometry">
            <mxRectangle x="6.5" y="6.25" width="50" height="40" as="alternateBounds" />
          </mxGeometry>
        </mxCell>
        <mxCell id="JQodVGw4U6Q7ayuIJfdO-4" style="rounded=0;orthogonalLoop=1;jettySize=auto;html=1;entryX=0.5;entryY=1;entryDx=0;entryDy=0;endArrow=none;endFill=0;" parent="1" source="WMxFekpVjy091wSbI-C_-39" target="JQodVGw4U6Q7ayuIJfdO-3" edge="1">
          <mxGeometry relative="1" as="geometry" />
        </mxCell>
        <mxCell id="WMxFekpVjy091wSbI-C_-39" value="Transactions" style="rounded=0;whiteSpace=wrap;html=1;" parent="1" vertex="1">
          <mxGeometry x="483" y="150" width="120" height="60" as="geometry" />
        </mxCell>
        <mxCell id="WMxFekpVjy091wSbI-C_-53" value="Is ordered" style="rhombus;whiteSpace=wrap;html=1;container=1;" parent="1" vertex="1">
          <mxGeometry x="729.5" y="139.25" width="80" height="80" as="geometry">
            <mxRectangle x="6.5" y="6.25" width="50" height="40" as="alternateBounds" />
          </mxGeometry>
        </mxCell>
        <mxCell id="JQodVGw4U6Q7ayuIJfdO-3" value="&lt;u&gt;id&lt;/u&gt;" style="ellipse;whiteSpace=wrap;html=1;fontStyle=0" parent="1" vertex="1">
          <mxGeometry x="470" y="40" width="85" height="50" as="geometry" />
        </mxCell>
        <mxCell id="JQodVGw4U6Q7ayuIJfdO-11" value="&lt;font style=&quot;font-size: 15px;&quot;&gt;(1, 1)&lt;/font&gt;" style="rounded=0;orthogonalLoop=1;jettySize=auto;html=1;entryX=0;entryY=0.5;entryDx=0;entryDy=0;endArrow=none;endFill=0;" parent="1" source="JQodVGw4U6Q7ayuIJfdO-7" target="JQodVGw4U6Q7ayuIJfdO-8" edge="1">
          <mxGeometry relative="1" as="geometry" />
        </mxCell>
        <mxCell id="JQodVGw4U6Q7ayuIJfdO-7" value="Produce" style="rhombus;whiteSpace=wrap;html=1;" parent="1" vertex="1">
          <mxGeometry x="360" y="260" width="80" height="80" as="geometry" />
        </mxCell>
        <mxCell id="JQodVGw4U6Q7ayuIJfdO-8" value="Produce" style="rounded=0;whiteSpace=wrap;html=1;" parent="1" vertex="1">
          <mxGeometry x="510" y="320" width="120" height="60" as="geometry" />
        </mxCell>
        <mxCell id="JQodVGw4U6Q7ayuIJfdO-10" value="&lt;font style=&quot;font-size: 15px;&quot;&gt;(1, 1)&lt;/font&gt;" style="rounded=0;orthogonalLoop=1;jettySize=auto;html=1;entryX=1;entryY=0.5;entryDx=0;entryDy=0;endArrow=none;endFill=0;" parent="1" source="JQodVGw4U6Q7ayuIJfdO-9" target="JQodVGw4U6Q7ayuIJfdO-8" edge="1">
          <mxGeometry relative="1" as="geometry" />
        </mxCell>
        <mxCell id="JQodVGw4U6Q7ayuIJfdO-9" value="Is&lt;br&gt;&amp;nbsp;produced" style="rhombus;whiteSpace=wrap;html=1;" parent="1" vertex="1">
          <mxGeometry x="729.5" y="275" width="80" height="80" as="geometry" />
        </mxCell>
        <mxCell id="JQodVGw4U6Q7ayuIJfdO-13" style="rounded=0;orthogonalLoop=1;jettySize=auto;html=1;entryX=0.5;entryY=1;entryDx=0;entryDy=0;endArrow=none;endFill=0;" parent="1" source="JQodVGw4U6Q7ayuIJfdO-12" target="JQodVGw4U6Q7ayuIJfdO-8" edge="1">
          <mxGeometry relative="1" as="geometry" />
        </mxCell>
        <mxCell id="JQodVGw4U6Q7ayuIJfdO-12" value="&lt;u&gt;id&lt;/u&gt;" style="ellipse;whiteSpace=wrap;html=1;" parent="1" vertex="1">
          <mxGeometry x="620" y="440" width="85" height="50" as="geometry" />
        </mxCell>
        <mxCell id="4h1WXfMJCTs02p5zFVBD-2" style="rounded=0;orthogonalLoop=1;jettySize=auto;html=1;entryX=1;entryY=0;entryDx=0;entryDy=0;endArrow=none;endFill=0;" edge="1" parent="1" source="4h1WXfMJCTs02p5zFVBD-1" target="WMxFekpVjy091wSbI-C_-39">
          <mxGeometry relative="1" as="geometry" />
        </mxCell>
        <mxCell id="4h1WXfMJCTs02p5zFVBD-1" value="is_active" style="ellipse;whiteSpace=wrap;html=1;" vertex="1" parent="1">
          <mxGeometry x="680" y="40" width="85" height="50" as="geometry" />
        </mxCell>
      </root>
    </mxGraphModel>
  </diagram>
</mxfile>
